<svg xmlns="http://www.w3.org/2000/svg" viewBox="0 0 198.53 60" fill="#fff" width="200" height="60"><path d="M49.22 24.12h-3.4l5.39-6.61-4.84-6.14h3.22l4.19 5.37v-5.37h2.62v5.37l4.2-5.37h3.22L59 17.51l5.42 6.61H61l-4.6-5.61v5.61h-2.62v-5.61zm18.87 0h-2.2V11.37h2.61v8.3l6.17-8.3h2.26v12.75h-2.6v-8.36l-6.24 8.36zm10.83-10.38v-2.35h10.69v2.35h-4.07v10.38h-2.62V13.74zm15 7a3.93 3.93 0 0 0 5.56.06l.06-.06a4.15 4.15 0 0 0 1.13-3 4.15 4.15 0 0 0-1.13-3 3.93 3.93 0 0 0-5.54-.03l-.06.06a4.15 4.15 0 0 0-1.11 3A4.15 4.15 0 0 0 94 20.74zm-3.79-3A6.41 6.41 0 0 1 92 13.06a6.75 6.75 0 0 1 9.45 0 6.46 6.46 0 0 1 1.89 4.7 6.5 6.5 0 0 1-1.89 4.7 6.75 6.75 0 0 1-9.45 0 6.49 6.49 0 0 1-1.87-4.7zm18.2 6.36h-2.62V11.37h2.62l3.7 5.28 3.7-5.28h2.54v12.75h-2.59V15.4l-2.93 4.1h-1.44l-3-4.1zm15 0h-2.21V11.37h2.62v8.3l6.17-8.3h2.26v12.75h-2.61v-8.36l-6.24 8.36zm14.29 0H135V11.37h5.57a4.64 4.64 0 0 1 3.24 1.07 3.51 3.51 0 0 1 1.2 2.77 3.53 3.53 0 0 1-1.2 2.79 4.64 4.64 0 0 1-3.24 1.07h-2.95v5zm0-10.45v3.16h2.78a2.35 2.35 0 0 0 1.48-.41 1.4 1.4 0 0 0 .53-1.17 1.4 1.4 0 0 0-.53-1.17 2.36 2.36 0 0 0-1.48-.41zm15.84 10.71a6.9 6.9 0 0 1-4.93-1.86 6.32 6.32 0 0 1-2-4.77 6.32 6.32 0 0 1 2-4.73 6.93 6.93 0 0 1 5-1.86 7.08 7.08 0 0 1 3.37.8v2.64a5.9 5.9 0 0 0-3.35-1 4.24 4.24 0 0 0-3 1.18 4 4 0 0 0-1.2 3 4 4 0 0 0 1.21 3 4.33 4.33 0 0 0 3.12 1.16 5.45 5.45 0 0 0 3.49-1.11v2.64a6.91 6.91 0 0 1-3.61.93zm11.29-.25h-5.42V11.37H162v4.2h2.8a5.17 5.17 0 0 1 3.61 1.2 3.89 3.89 0 0 1 1.31 3.09 3.89 3.89 0 0 1-1.33 3.07 5.26 5.26 0 0 1-3.61 1.18zm-2.75-6.3v4h2.66a2.79 2.79 0 0 0 1.81-.52 1.77 1.77 0 0 0 .64-1.47 1.81 1.81 0 0 0-.65-1.49 2.76 2.76 0 0 0-1.81-.53zm12.34 6.32h-2.62V11.37h2.61v5l4.7-5h3.21l-5.42 5.84 6.32 6.9h-3.35l-5.45-5.87v5.87zm11.87 0h-2.75l5.46-12.84h2.51l5.46 12.83h-2.79l-1.26-2.95h-5.39l-1.26 2.95zm4-9.54L188.26 19H192l-1.86-4.43zM50.44 43.35h-3.08v-15H59.9v15h-3.06V31.16h-6.4zm16.71-4a4.62 4.62 0 0 0 6.54.07l.07-.07a5.3 5.3 0 0 0 0-7 4.62 4.62 0 0 0-6.54-.07l-.07.07a4.88 4.88 0 0 0-1.3 3.51 4.88 4.88 0 0 0 1.3 3.51zm-4.45-3.49a7.53 7.53 0 0 1 2.2-5.52 7.83 7.83 0 1 1 0 11 7.62 7.62 0 0 1-2.2-5.48zm16.38 7.36v-2.79a3.19 3.19 0 0 0 1.09.17q1.2 0 1.63-1.65a30.92 30.92 0 0 0 .49-6.2l.06-4.38h10.57v15h-3.06V31.16h-4.52l-.09 3q-.17 5.28-1.2 7.25a3.84 3.84 0 0 1-3.7 2 3.3 3.3 0 0 1-1.26-.19zm20.32.13h-3.06v-15h3.06v15zm2.4-12.19v-2.79h12.55v2.76h-4.75v12.22h-3.08V31.16zm26.07 12.19h-11.23v-15h11v2.76h-7.92V34h6.38v2.71h-6.38v3.85h8.13v2.77zm1.84-15h3.61l3.16 4.47 3.19-4.47h3.55l-5 6.89 5.8 8.09h-3.61l-4.06-5.58-4.06 5.58h-3.55l5.84-8.06-4.94-6.91zm19.2 15h-3.07v-15h3.08V34h6.77v-5.6h3.06v15h-3.05v-6.62h-6.77v6.57zm16.3 0h-3.06v-15h3.06zm6.48 0h-3.08v-15h3.08v5.9l5.52-5.9H181l-6.35 6.85 7.44 8.13h-3.94l-6.44-6.91v6.91zm13.94 0h-3.21l6.42-15.06h3l6.4 15.06h-3.27l-1.48-3.46h-6.32l-1.48 3.46zm4.65-11.21l-2.2 5.2h4.38zM28.24 58.83L5.96 47.45l22.28-23.57v34.95zm2.16-37.21L30.59 60h35.97l12.87-12.88h-37.6V9.43L30.4 21.62zm48.06 37.21h-.59v-1.91h.56a5 5 0 0 0 .79-1.81 13.16 13.16 0 0 0 .25-2.87v-.72h3.69v5.42h.9v1.91h-.59v-1.36h-5v1.33zm.68-1.91h3.39v-4.84H80.1v.4a7.94 7.94 0 0 1-.95 4.44zm10.29.57H85.2v-6h4.1v.57h-3.46V54h2.84v.57h-2.84v2.35h3.61v.57zm1.87 0h-.63v-6h2.51a2 2 0 0 1 1.4.45 1.53 1.53 0 0 1 .51 1.21 1.56 1.56 0 0 1-.51 1.23 2 2 0 0 1-1.4.45H91.3v2.64zm0-5.42v2.19h1.84a1.51 1.51 0 0 0 1-.28 1 1 0 0 0 .35-.81 1 1 0 0 0-.35-.82 1.51 1.51 0 0 0-1-.28zm4.64-.57h.8l2.51 2.68v-2.65h.63v2.66l2.52-2.67h.8l-2.68 2.84 3 3.16h-.84l-2.82-2.94v2.94h-.63v-2.93l-2.8 2.92h-.84l3-3.16-2.68-2.84zm8.76 6h-.7l2.66-6h.59l2.67 6h-.67l-.75-1.65h-3.12l-.73 1.65zm2.3-5.23l-1.35 3h2.71zm6.92 5.22h-2.86v-6h2.59a1.89 1.89 0 0 1 1.26.39 1.32 1.32 0 0 1 .45 1.07 1.46 1.46 0 0 1-.21.79 1.13 1.13 0 0 1-.58.45 1.47 1.47 0 0 1 .95.52 1.64 1.64 0 0 1 .35 1.07 1.52 1.52 0 0 1-.53 1.21 2.14 2.14 0 0 1-1.44.45zm-2.22-2.89v2.33h2.11a1.57 1.57 0 0 0 1-.31 1.06 1.06 0 0 0 .37-.86 1 1 0 0 0-.37-.85 1.58 1.58 0 0 0-1-.3zm0-2.51v2h1.86a1.39 1.39 0 0 0 .9-.25.86.86 0 0 0 .31-.72.9.9 0 0 0-.31-.74 1.35 1.35 0 0 0-.9-.26zm6.2 5.42h-.63v-6h.63V54h3.54v-2.49h.63v6h-.63v-2.94h-3.55v2.92zm6.4 0h-.53v-6h.62v4.93l3.72-4.92h.56v6h-.62v-4.97l-3.74 4.94zm6.58 0h-.54v-6h.66v4.93l3.72-4.92h.56v6h-.62v-4.97l-3.74 4.94zm1.91-6.4a1.47 1.47 0 0 1-1-.35 1.24 1.24 0 0 1-.4-.94h.55a.75.75 0 0 0 .24.58.9.9 0 0 0 .64.22.86.86 0 0 0 .62-.22.79.79 0 0 0 .24-.58h.55a1.28 1.28 0 0 1-.41.95 1.47 1.47 0 0 1-1 .35zm7.06 6.5a2 2 0 0 1-.75-.12v-.6a1.77 1.77 0 0 0 .65.12.88.88 0 0 0 .74-.37 3.22 3.22 0 0 0 .24-.36l.24-.45-2.41-4.3h.7l2 3.65 1.74-3.65h.68l-2.2 4.71a3.07 3.07 0 0 1-.72 1 1.29 1.29 0 0 1-.85.32zm5.49-.1h-.63v-6h.63V54h3.55v-2.49h.63v6h-.63v-2.94h-3.55v2.92zm6.54 0h-.63v-6h.63v6zm4.58 0h-2.86v-6h2.59a1.89 1.89 0 0 1 1.26.39 1.32 1.32 0 0 1 .45 1.07 1.46 1.46 0 0 1-.21.79 1.13 1.13 0 0 1-.58.45 1.47 1.47 0 0 1 .95.52 1.64 1.64 0 0 1 .35 1.07 1.52 1.52 0 0 1-.53 1.21 2.14 2.14 0 0 1-1.44.45zm-2.22-2.89v2.33h2.11a1.57 1.57 0 0 0 1-.31 1.06 1.06 0 0 0 .37-.86 1 1 0 0 0-.37-.85 1.58 1.58 0 0 0-1-.3zm0-2.51v2h1.86a1.39 1.39 0 0 0 .9-.25.86.86 0 0 0 .31-.72.9.9 0 0 0-.31-.74 1.35 1.35 0 0 0-.9-.26zm9.8 5.42h-4.23v-6h4.09v.57h-3.47V54h2.84v.57h-2.84v2.35h3.61v.6zm1.87 0h-.63v-6h2.51a2 2 0 0 1 1.4.45 1.53 1.53 0 0 1 .51 1.21 1.56 1.56 0 0 1-.51 1.23 2 2 0 0 1-1.4.45h-1.88v2.67zm0-5.42v2.19h1.84a1.51 1.51 0 0 0 1-.28 1 1 0 0 0 .35-.81 1 1 0 0 0-.35-.82 1.51 1.51 0 0 0-1-.28zm7.87 5.51a3.14 3.14 0 0 1-2.21-5.32 3 3 0 0 1 2.19-.88 3.06 3.06 0 0 1 1.68.45v.65a3 3 0 0 0-1.67-.51 2.34 2.34 0 0 0-1.73.72 2.64 2.64 0 0 0 0 3.58 2.38 2.38 0 0 0 1.75.71 2.71 2.71 0 0 0 1.78-.6v.66a3 3 0 0 1-1.81.53zm3.61-.1h-.53v-6h.62v4.93l3.72-4.92h.56v6h-.62v-4.98l-3.74 4.94zm8.2 0H185v-5.43h-2.06v-.57h4.78v.57h-2.11v5.42zm7.46 0h-4.23v-6h4.1v.57h-3.47V54h2.84v.57h-2.84v2.35h3.61v.57zm3.39 0h-.63v-5.43h-2.07v-.57h4.78v.57h-2.09zM4 46.65l-4-2Q20.93 22.32 41.83 0v6.21z"/></svg>